# xmcd CD database file
#
# Track frame offsets:
#	300
#	12473
#	28627
#	44568
#	60583
#	79099
#	97415
#	116488
#	129962
#	149583
#	170048
#	186826
#
# Disc length: 2705 seconds
#
# Revision: 0
# Processed by: cddbd v1.5.1PL0 Copyright (c) Steve Scherf et al.
# Submitted via: CDex 1.51
#
DISCID=af0a8d0c
DTITLE=Garrison, Sean and the Five Finger Discount - Against All Flags
DYEAR=2005
DGENRE=Country
TTITLE0=Cloudy Vision
TTITLE1=The Foolish Stars
TTITLE2=Prince of the Air
TTITLE3=Little Ice Queen
TTITLE4=I Escaped the Noose
TTITLE5=A Bit At A Time
TTITLE6=I Will Not Believe
TTITLE7=Wolf In The House
TTITLE8=I'm Jesse James
TTITLE9=Children Never Learn
TTITLE10=King of the Shallows
TTITLE11=The Weak and the Strong
EXTD=YEAR: 2005
EXTT0=
EXTT1=
EXTT2=
EXTT3=
EXTT4=
EXTT5=
EXTT6=
EXTT7=
EXTT8=
EXTT9=
EXTT10=
EXTT11=
PLAYORDER=
